<?xml version="1.0" encoding="UTF-8" standalone="no"?>
<!DOCTYPE svg PUBLIC "-//W3C//DTD SVG 1.1//EN" "http://www.w3.org/Graphics/SVG/1.1/DTD/svg11.dtd">
<svg width="100%" height="100%" viewBox="0 0 574 625" version="1.1" xmlns="http://www.w3.org/2000/svg" xmlns:xlink="http://www.w3.org/1999/xlink" xml:space="preserve" xmlns:serif="http://www.serif.com/" style="fill-rule:evenodd;clip-rule:evenodd;stroke-linecap:round;stroke-linejoin:round;stroke-miterlimit:1.5;">
    <g transform="matrix(1,0,0,1,-102.908,-121.5)">
        <g id="logic">
            <g id="C1" transform="matrix(1,0,0,1,70,21)">
                <g transform="matrix(0.97561,0,0,0.918367,3.21951,8.2449)">
                    <rect x="132" y="101" width="164" height="49" style="fill:white;stroke:black;stroke-width:1.06px;"/>
                </g>
                <g transform="matrix(1,0,0,1,9,15)">
                    <text x="152px" y="116.6px" style="font-family:'STHeitiSC-Medium', 'Heiti SC';font-size:20px;fill:rgb(77,77,77);">查询公众号</text>
                </g>
            </g>
            <g id="C2" transform="matrix(1,0,0,1,70,118)">
                <g transform="matrix(0.97561,0,0,0.918367,3.21951,8.2449)">
                    <rect x="132" y="101" width="164" height="49" style="fill:white;stroke:black;stroke-width:1.06px;"/>
                </g>
                <g transform="matrix(1,0,0,1,9,15)">
                    <text x="132px" y="116.6px" style="font-family:'STHeitiSC-Medium', 'Heiti SC';font-size:20px;fill:rgb(77,77,77);">显示公众号列表</text>
                </g>
            </g>
            <g id="C3" transform="matrix(0.993789,0,0,1.42222,70.8137,177.356)">
                <g transform="matrix(0.97561,0,0,0.918367,3.21951,8.2449)">
                    <rect x="132" y="101" width="164" height="49" style="fill:white;stroke:black;stroke-width:0.87px;"/>
                </g>
                <g transform="matrix(1.00625,0,0,0.703125,8.2375,40.5313)">
                    <text x="129.281px" y="114.1px" style="font-family:'STHeitiSC-Medium', 'Heiti SC';font-size:20px;fill:rgb(77,77,77);">判断第</text>
                    <text x="189.281px" y="114.1px" style="font-family:'ArialMT', 'Arial', sans-serif;font-size:20px;fill:rgb(77,77,77);">i</text>
                    <text x="193.725px" y="114.1px" style="font-family:'STHeitiSC-Medium', 'Heiti SC';font-size:20px;fill:rgb(77,77,77);">个公众号</text>
                    <text x="161.503px" y="138.1px" style="font-family:'STHeitiSC-Medium', 'Heiti SC';font-size:20px;fill:rgb(77,77,77);">是否已读</text>
                </g>
            </g>
            <g id="C4" transform="matrix(0.993789,0,0,1.42222,312.814,177.356)">
                <g transform="matrix(0.97561,0,0,0.918367,3.21951,8.2449)">
                    <rect x="132" y="101" width="164" height="49" style="fill:white;stroke:black;stroke-width:0.87px;"/>
                </g>
                <g transform="matrix(1.00625,0,0,0.703125,8.2375,40.5313)">
                    <text x="131.503px" y="114.1px" style="font-family:'STHeitiSC-Medium', 'Heiti SC';font-size:20px;fill:rgb(77,77,77);">阅读公众号文章</text>
                    <text x="141.503px" y="138.1px" style="font-family:'STHeitiSC-Medium', 'Heiti SC';font-size:20px;fill:rgb(77,77,77);">保存链接地址</text>
                </g>
            </g>
            <g id="C5" transform="matrix(0.993789,0,0,1.42222,70.8137,296.356)">
                <g transform="matrix(0.97561,0,0,0.918367,3.21951,8.2449)">
                    <rect x="132" y="101" width="164" height="49" style="fill:white;stroke:black;stroke-width:0.87px;"/>
                </g>
                <g transform="matrix(1.00625,0,0,0.703125,8.2375,40.5313)">
                    <text x="131.503px" y="116.1px" style="font-family:'STHeitiSC-Medium', 'Heiti SC';font-size:20px;fill:rgb(77,77,77);">是否到页面最后</text>
                    <text x="151.503px" y="136.1px" style="font-family:'STHeitiSC-Medium', 'Heiti SC';font-size:20px;fill:rgb(77,77,77);">一个公众号</text>
                </g>
            </g>
            <g id="C6" transform="matrix(0.993789,0,0,1.42222,312.814,297.356)">
                <g transform="matrix(0.97561,0,0,0.918367,3.21951,8.2449)">
                    <rect x="132" y="101" width="164" height="49" style="fill:white;stroke:black;stroke-width:0.87px;"/>
                </g>
                <g transform="matrix(1.00625,0,0,0.703125,8.2375,40.5313)">
                    <text x="131.503px" y="114.1px" style="font-family:'STHeitiSC-Medium', 'Heiti SC';font-size:20px;fill:rgb(77,77,77);">阅读公众号文章</text>
                    <text x="141.503px" y="138.1px" style="font-family:'STHeitiSC-Medium', 'Heiti SC';font-size:20px;fill:rgb(77,77,77);">保存链接地址</text>
                </g>
            </g>
            <g id="C7" transform="matrix(0.993789,0,0,1.42222,70.8137,417.356)">
                <g transform="matrix(0.97561,0,0,0.918367,3.21951,8.2449)">
                    <rect x="132" y="101" width="164" height="49" style="fill:white;stroke:black;stroke-width:0.87px;"/>
                </g>
                <g transform="matrix(1.00625,0,0,0.703125,8.2375,40.5313)">
                    <text x="129.503px" y="125.29px" style="font-family:'STHeitiSC-Medium', 'Heiti SC';font-size:18px;fill:rgb(77,77,77);">是否公众号最后页</text>
                </g>
            </g>
            <g id="C8" transform="matrix(0.993789,0,0,1.42222,312.814,417.356)">
                <g transform="matrix(0.97561,0,0,0.918367,3.21951,8.2449)">
                    <rect x="132" y="101" width="164" height="49" style="fill:white;stroke:black;stroke-width:0.87px;"/>
                </g>
                <g transform="matrix(1.00625,0,0,0.703125,8.2375,40.5313)">
                    <text x="131.503px" y="114.1px" style="font-family:'STHeitiSC-Medium', 'Heiti SC';font-size:20px;fill:rgb(77,77,77);">下拉滚动条到下</text>
                    <text x="181.503px" y="138.1px" style="font-family:'STHeitiSC-Medium', 'Heiti SC';font-size:20px;fill:rgb(77,77,77);">一页</text>
                </g>
            </g>
            <g id="C9" transform="matrix(0.993789,0,0,1.42222,70.8137,538.356)">
                <g transform="matrix(0.97561,0,0,0.918367,3.21951,8.2449)">
                    <rect x="132" y="101" width="164" height="49" style="fill:white;stroke:black;stroke-width:0.87px;"/>
                </g>
                <g transform="matrix(1.00625,0,0,0.703125,8.2375,40.5313)">
                    <text x="131.503px" y="114.1px" style="font-family:'STHeitiSC-Medium', 'Heiti SC';font-size:20px;fill:rgb(77,77,77);">滚动到公众号列</text>
                    <text x="171.503px" y="138.1px" style="font-family:'STHeitiSC-Medium', 'Heiti SC';font-size:20px;fill:rgb(77,77,77);">表顶部</text>
                </g>
            </g>
        </g>
        <g id="flow">
            <g id="L11">
                <g transform="matrix(-1,5.75442e-15,7.44079e-15,-8.33333,400,2103.67)">
                    <path d="M279,167L279,218" style="fill:none;stroke:black;stroke-width:0.25px;"/>
                </g>
                <g transform="matrix(1,0,0,1,0,-5)">
                    <path d="M121,719L202,719" style="fill:none;stroke:black;stroke-width:1.5px;"/>
                </g>
                <g transform="matrix(1,0,0,1,0,-7)">
                    <g transform="matrix(1,-0,-0,1,102.908,128.5)">
                        <path d="M164.592,159.75L178.092,166.5L164.592,173.25C167.967,169.875 167.967,163.125 164.592,159.75Z"/>
                        <path d="M19.092,166.5L167.292,166.5" style="fill:none;stroke:black;stroke-width:1.5px;"/>
                    </g>
                </g>
            </g>
            <g id="L10" transform="matrix(1,0,0,1,1,121)">
                <g transform="matrix(1,0,0,1,-154,199)">
                    <text x="391.83px" y="340.663px" style="font-family:'ArialMT', 'Arial', sans-serif;font-size:20px;fill:rgb(77,77,77);">Y</text>
                </g>
                <g transform="matrix(1,0,0,1.09804,2,320.627)">
                    <g transform="matrix(1,-0,-0,0.910714,99.9081,-291.545)">
                        <path d="M185.842,546L179.092,559.5L172.342,546C175.717,549.375 182.467,549.375 185.842,546Z"/>
                        <path d="M179.092,503.5L179.092,548.7" style="fill:none;stroke:black;stroke-width:1.5px;"/>
                    </g>
                </g>
            </g>
            <g id="L9">
                <g transform="matrix(0.666667,0,0,1,523.955,-122.275)">
                    <path d="M121,719L202,719" style="fill:none;stroke:black;stroke-width:1.77px;"/>
                </g>
                <g transform="matrix(-1,1.22465e-16,-1.22465e-16,-1,938,576)">
                    <g transform="matrix(-1,-1.22465e-16,1.22465e-16,-1,835.092,454.5)">
                        <path d="M191.592,173.25L178.092,166.5L191.592,159.75C188.217,163.125 188.217,169.875 191.592,173.25Z"/>
                        <path d="M554.092,166.5L188.892,166.5" style="fill:none;stroke:black;stroke-width:1.5px;"/>
                    </g>
                </g>
                <g transform="matrix(-0.712963,4.18144e-15,5.39734e-15,-6.03922,856.917,1603.55)">
                    <path d="M279,167L279,218" style="fill:none;stroke:black;stroke-width:0.35px;"/>
                </g>
            </g>
            <g id="L8" transform="matrix(1,0,0,1,0,243)">
                <g transform="matrix(9.36495e-17,-1,1.52941,6.12323e-17,108.088,632.5)">
                    <g transform="matrix(4.00365e-17,0.653846,-1,6.12323e-17,754,-3.387)">
                        <path d="M325.092,468.25L338.592,475L325.092,481.75C328.467,478.375 328.467,471.625 325.092,468.25Z"/>
                        <path d="M260.592,475L327.792,475" style="fill:none;stroke:black;stroke-width:1.5px;"/>
                    </g>
                </g>
                <text x="391.278px" y="340.663px" style="font-family:'ArialMT', 'Arial', sans-serif;font-size:20px;fill:rgb(77,77,77);">N</text>
            </g>
            <g id="L7">
                <g transform="matrix(1,0,0,1,-154,199)">
                    <text x="391.83px" y="340.663px" style="font-family:'ArialMT', 'Arial', sans-serif;font-size:20px;fill:rgb(77,77,77);">Y</text>
                </g>
                <g transform="matrix(1,0,0,1.09804,2,320.627)">
                    <g transform="matrix(1,-0,-0,0.910714,100.908,-181.348)">
                        <path d="M184.842,425L178.092,438.5L171.342,425C174.717,428.375 181.467,428.375 184.842,425Z"/>
                        <path d="M178.092,382.5L178.092,427.7" style="fill:none;stroke:black;stroke-width:1.5px;"/>
                    </g>
                </g>
            </g>
            <g id="L6">
                <g transform="matrix(1.65688e-16,-1,1.56863,-8.40444e-18,101.539,751.5)">
                    <g transform="matrix(-5.35783e-18,0.6375,-1,1.05626e-16,630,0.872675)">
                        <path d="M327.092,344.25L340.592,351L327.092,357.75C330.467,354.375 330.467,347.625 327.092,344.25Z"/>
                        <path d="M260.592,351L329.792,351" style="fill:none;stroke:black;stroke-width:1.5px;"/>
                    </g>
                </g>
                <g transform="matrix(1,0,0,1,0,118)">
                    <text x="391.278px" y="340.663px" style="font-family:'ArialMT', 'Arial', sans-serif;font-size:20px;fill:rgb(77,77,77);">N</text>
                </g>
            </g>
            <g id="L5">
                <g transform="matrix(-8.60855e-16,1,-4.68627,-1.83697e-16,1302.11,128.5)">
                    <g transform="matrix(-3.91989e-17,-0.213389,1,-1.83697e-16,-7,255.896)">
                        <path d="M191.092,292.75L177.592,286L191.092,279.25C187.717,282.625 187.717,289.375 191.092,292.75Z"/>
                        <path d="M416.592,286L188.392,286" style="fill:none;stroke:black;stroke-width:1.5px;"/>
                    </g>
                </g>
                <g transform="matrix(1,0,0,0.737705,0,101.246)">
                    <path d="M519.5,416.5L519.5,386" style="fill:none;stroke:black;stroke-width:1.71px;"/>
                </g>
            </g>
            <g id="L4">
                <g transform="matrix(1,0,0,1,2,220)">
                    <g transform="matrix(1,-0,-0,1,100.908,-98.5)">
                        <path d="M184.842,303L178.092,316.5L171.342,303C174.717,306.375 181.467,306.375 184.842,303Z"/>
                        <path d="M178.092,265.5L178.092,305.7" style="fill:none;stroke:black;stroke-width:1.5px;"/>
                    </g>
                </g>
                <g transform="matrix(1,0,0,1,-154,76)">
                    <text x="391.83px" y="340.663px" style="font-family:'ArialMT', 'Arial', sans-serif;font-size:20px;fill:rgb(77,77,77);">Y</text>
                </g>
            </g>
            <g id="L3">
                <g transform="matrix(9.36495e-17,-1,1.52941,6.12323e-17,108.088,632.5)">
                    <g transform="matrix(4.00365e-17,0.653846,-1,6.12323e-17,511,-3.387)">
                        <path d="M325.092,225.25L338.592,232L325.092,238.75C328.467,235.375 328.467,228.625 325.092,225.25Z"/>
                        <path d="M260.592,232L327.792,232" style="fill:none;stroke:black;stroke-width:1.5px;"/>
                    </g>
                </g>
                <text x="391.278px" y="340.663px" style="font-family:'ArialMT', 'Arial', sans-serif;font-size:20px;fill:rgb(77,77,77);">N</text>
            </g>
            <g id="L2" transform="matrix(1,0,0,1.09804,2,81.6275)">
                <g transform="matrix(1,-0,-0,0.910714,100.908,36.3125)">
                    <path d="M184.842,186L178.092,199.5L171.342,186C174.717,189.375 181.467,189.375 184.842,186Z"/>
                    <path d="M178.092,143.5L178.092,188.7" style="fill:none;stroke:black;stroke-width:1.5px;"/>
                </g>
            </g>
            <g id="L1" transform="matrix(1,0,0,1,2,0)">
                <g transform="matrix(1,-0,-0,1,100.908,121.5)">
                    <path d="M184.842,83L178.092,96.5L171.342,83C174.717,86.375 181.467,86.375 184.842,83Z"/>
                    <path d="M178.092,45.5L178.092,85.7" style="fill:none;stroke:black;stroke-width:1.5px;"/>
                </g>
            </g>
        </g>
    </g>
</svg>
